<svg xmlns="http://www.w3.org/2000/svg" xmlns:xlink="http://www.w3.org/1999/xlink" version="1.1" xml:space="preserve" viewBox="129.98 67.82 282.3 282.02">
<desc>Created with Fabric.js 4.6.0</desc>
<defs>
</defs>
<g transform="matrix(1 0 0 1 270.99 208.83)" id="-JiBYB1vgVrhCQfsCFxwg">
<path style="stroke: rgb(149,46,68); stroke-width: 0; stroke-dasharray: none; stroke-linecap: butt; stroke-dashoffset: 0; stroke-linejoin: miter; stroke-miterlimit: 4; fill: rgb(50,49,49); fill-rule: nonzero; opacity: 1;" vector-effect="non-scaling-stroke" transform=" translate(-141.01, -141.01)" d="M 141.01184 0 C 218.85038 0 282.02368 63.17331 282.02368 141.01184 C 282.02368 218.85038 218.85037 282.02368 141.01184 282.02368 C 63.17330000000001 282.02368 0 218.85037 0 141.01184 C 0 63.17330000000001 63.17331 0 141.01184 0 z" stroke-linecap="round"/>
</g>
<g transform="matrix(3.97 0 0 0.03 271.26 213.38)" id="cQCrQLH0JGUXpvRVpgGw2">
<path style="stroke: rgb(54,11,143); stroke-width: 0; stroke-dasharray: none; stroke-linecap: butt; stroke-dashoffset: 0; stroke-linejoin: miter; stroke-miterlimit: 4; fill: rgb(0,0,0); fill-rule: nonzero; opacity: 1;" vector-effect="non-scaling-stroke" transform=" translate(0, 0)" d="M 0 -35.52206 C 19.60818 -35.52206 35.52206 -19.608180000000004 35.52206 0 C 35.52206 19.60818 19.608180000000004 35.52206 0 35.52206 C -19.60818 35.52206 -35.52206 19.608180000000004 -35.52206 0 C -35.52206 -19.60818 -19.608180000000004 -35.52206 0 -35.52206 z" stroke-linecap="round"/>
</g>
<g transform="matrix(2.1 0 0 2.1 341.87 159.34)" id="WjgNzIDFRjj0vPtQaAc3P">
<filter id="SVGID_71" y="-23%" height="146%" x="-23%" width="146%">
	<feGaussianBlur in="SourceAlpha" stdDeviation="0.5"/>
	<feOffset dx="0" dy="0" result="oBlur"/>
	<feFlood flood-color="rgb(0,0,0)" flood-opacity="1"/>
	<feComposite in2="oBlur" operator="in"/>
	<feMerge>
		<feMergeNode/>
		<feMergeNode in="SourceGraphic"/>
	</feMerge>
</filter>
<path style="stroke: rgb(231,104,120); stroke-width: 0; stroke-dasharray: none; stroke-linecap: butt; stroke-dashoffset: 0; stroke-linejoin: miter; stroke-miterlimit: 4; fill: rgb(86,83,83); fill-rule: nonzero; opacity: 1;filter: url(#SVGID_71);" vector-effect="non-scaling-stroke" transform=" translate(0, 0)" d="M 0 -17.22282 C 9.507 -17.22282 17.22282 -9.506989999999998 17.22282 0 C 17.22282 9.507 9.506989999999998 17.22282 0 17.22282 C -9.507 17.22282 -17.22282 9.506989999999998 -17.22282 0 C -17.22282 -9.507 -9.506989999999998 -17.22282 0 -17.22282 z" stroke-linecap="round"/>
</g>
<g transform="matrix(1.34 0 0 1.34 341.91 159.27)" id="Sgb6T4Fy42gzm3VI-K4yh">
<filter id="SVGID_105" y="-56%" height="212%" x="-56%" width="212%">
	<feGaussianBlur in="SourceAlpha" stdDeviation="7.5"/>
	<feOffset dx="1" dy="1" result="oBlur"/>
	<feFlood flood-color="rgb(0,0,0)" flood-opacity="1"/>
	<feComposite in2="oBlur" operator="in"/>
	<feMerge>
		<feMergeNode/>
		<feMergeNode in="SourceGraphic"/>
	</feMerge>
</filter>
<path style="stroke: rgb(146,161,29); stroke-width: 0; stroke-dasharray: none; stroke-linecap: butt; stroke-dashoffset: 0; stroke-linejoin: miter; stroke-miterlimit: 4; fill: rgb(36,35,35); fill-rule: nonzero; opacity: 1;filter: url(#SVGID_105);" vector-effect="non-scaling-stroke" transform=" translate(0, 0)" d="M 0 -22.33584 C 12.32938 -22.33584 22.33584 -12.32938 22.33584 0 C 22.33584 12.32938 12.32938 22.33584 0 22.33584 C -12.32938 22.33584 -22.33584 12.32938 -22.33584 0 C -22.33584 -12.32938 -12.32938 -22.33584 0 -22.33584 z" stroke-linecap="round"/>
</g>
</svg>